<mxfile host="app.diagrams.net" agent="Mozilla/5.0 (Windows NT 10.0; Win64; x64; rv:143.0) Gecko/20100101 Firefox/143.0" version="27.0.9">
  <diagram name="Page-1" id="HorBHlQGNW-cZjtQ0PEa">
    <mxGraphModel dx="914" dy="664" grid="1" gridSize="10" guides="1" tooltips="1" connect="1" arrows="1" fold="1" page="1" pageScale="1" pageWidth="850" pageHeight="1100" math="0" shadow="0">
      <root>
        <mxCell id="0" />
        <mxCell id="1" parent="0" />
        <mxCell id="DCcbTAUr7Qpowl2ZESW9-10" value="&lt;font size=&quot;3&quot;&gt;A00B1&lt;/font&gt;" style="ellipse;whiteSpace=wrap;html=1;aspect=fixed;" vertex="1" parent="1">
          <mxGeometry x="550" y="770" width="110" height="110" as="geometry" />
        </mxCell>
        <mxCell id="DCcbTAUr7Qpowl2ZESW9-11" value="&lt;font size=&quot;3&quot;&gt;A00B0&lt;/font&gt;" style="ellipse;whiteSpace=wrap;html=1;aspect=fixed;" vertex="1" parent="1">
          <mxGeometry x="350" y="450" width="110" height="110" as="geometry" />
        </mxCell>
        <mxCell id="DCcbTAUr7Qpowl2ZESW9-12" value="&lt;font size=&quot;3&quot;&gt;A01B0&lt;/font&gt;" style="ellipse;whiteSpace=wrap;html=1;aspect=fixed;" vertex="1" parent="1">
          <mxGeometry x="550" y="450" width="110" height="110" as="geometry" />
        </mxCell>
        <mxCell id="DCcbTAUr7Qpowl2ZESW9-13" value="&lt;font size=&quot;3&quot;&gt;A01B1&lt;/font&gt;" style="ellipse;whiteSpace=wrap;html=1;aspect=fixed;" vertex="1" parent="1">
          <mxGeometry x="350" y="770" width="110" height="110" as="geometry" />
        </mxCell>
        <mxCell id="DCcbTAUr7Qpowl2ZESW9-14" value="&lt;font size=&quot;3&quot;&gt;A10B1&lt;/font&gt;" style="ellipse;whiteSpace=wrap;html=1;aspect=fixed;" vertex="1" parent="1">
          <mxGeometry x="140" y="770" width="110" height="110" as="geometry" />
        </mxCell>
        <mxCell id="DCcbTAUr7Qpowl2ZESW9-15" value="&lt;font size=&quot;3&quot;&gt;START&lt;/font&gt;" style="ellipse;whiteSpace=wrap;html=1;aspect=fixed;" vertex="1" parent="1">
          <mxGeometry x="150" y="450" width="110" height="110" as="geometry" />
        </mxCell>
        <mxCell id="DCcbTAUr7Qpowl2ZESW9-16" value="&lt;font size=&quot;3&quot;&gt;A10B0&lt;/font&gt;" style="ellipse;whiteSpace=wrap;html=1;aspect=fixed;" vertex="1" parent="1">
          <mxGeometry x="720" y="450" width="110" height="110" as="geometry" />
        </mxCell>
        <mxCell id="DCcbTAUr7Qpowl2ZESW9-17" value="&lt;font size=&quot;3&quot;&gt;A11B0&lt;/font&gt;" style="ellipse;whiteSpace=wrap;html=1;aspect=fixed;" vertex="1" parent="1">
          <mxGeometry x="720" y="770" width="110" height="110" as="geometry" />
        </mxCell>
        <mxCell id="DCcbTAUr7Qpowl2ZESW9-18" value="&lt;font size=&quot;3&quot;&gt;IDLE&lt;/font&gt;" style="ellipse;whiteSpace=wrap;html=1;aspect=fixed;" vertex="1" parent="1">
          <mxGeometry x="10" y="600" width="110" height="110" as="geometry" />
        </mxCell>
        <mxCell id="DCcbTAUr7Qpowl2ZESW9-19" value="" style="endArrow=classic;html=1;rounded=0;exitX=1;exitY=0;exitDx=0;exitDy=0;entryX=0.036;entryY=0.727;entryDx=0;entryDy=0;entryPerimeter=0;" edge="1" parent="1" source="DCcbTAUr7Qpowl2ZESW9-18" target="DCcbTAUr7Qpowl2ZESW9-15">
          <mxGeometry width="50" height="50" relative="1" as="geometry">
            <mxPoint x="430" y="690" as="sourcePoint" />
            <mxPoint x="480" y="640" as="targetPoint" />
          </mxGeometry>
        </mxCell>
        <mxCell id="DCcbTAUr7Qpowl2ZESW9-20" value="" style="endArrow=classic;html=1;rounded=0;exitX=1;exitY=0.5;exitDx=0;exitDy=0;entryX=0;entryY=0.5;entryDx=0;entryDy=0;" edge="1" parent="1" source="DCcbTAUr7Qpowl2ZESW9-15" target="DCcbTAUr7Qpowl2ZESW9-11">
          <mxGeometry width="50" height="50" relative="1" as="geometry">
            <mxPoint x="430" y="690" as="sourcePoint" />
            <mxPoint x="480" y="640" as="targetPoint" />
          </mxGeometry>
        </mxCell>
        <mxCell id="DCcbTAUr7Qpowl2ZESW9-21" value="" style="endArrow=classic;html=1;rounded=0;exitX=1;exitY=0.5;exitDx=0;exitDy=0;entryX=0;entryY=0.5;entryDx=0;entryDy=0;" edge="1" parent="1" source="DCcbTAUr7Qpowl2ZESW9-11" target="DCcbTAUr7Qpowl2ZESW9-12">
          <mxGeometry width="50" height="50" relative="1" as="geometry">
            <mxPoint x="480" y="650" as="sourcePoint" />
            <mxPoint x="570" y="650" as="targetPoint" />
          </mxGeometry>
        </mxCell>
        <mxCell id="DCcbTAUr7Qpowl2ZESW9-22" value="" style="endArrow=classic;html=1;rounded=0;exitX=1;exitY=0.5;exitDx=0;exitDy=0;entryX=0;entryY=0.5;entryDx=0;entryDy=0;" edge="1" parent="1" source="DCcbTAUr7Qpowl2ZESW9-12" target="DCcbTAUr7Qpowl2ZESW9-16">
          <mxGeometry width="50" height="50" relative="1" as="geometry">
            <mxPoint x="430" y="690" as="sourcePoint" />
            <mxPoint x="480" y="640" as="targetPoint" />
          </mxGeometry>
        </mxCell>
        <mxCell id="DCcbTAUr7Qpowl2ZESW9-23" value="" style="endArrow=classic;html=1;rounded=0;exitX=0.5;exitY=1;exitDx=0;exitDy=0;entryX=0.5;entryY=0;entryDx=0;entryDy=0;" edge="1" parent="1" source="DCcbTAUr7Qpowl2ZESW9-16" target="DCcbTAUr7Qpowl2ZESW9-17">
          <mxGeometry width="50" height="50" relative="1" as="geometry">
            <mxPoint x="430" y="690" as="sourcePoint" />
            <mxPoint x="480" y="640" as="targetPoint" />
          </mxGeometry>
        </mxCell>
        <mxCell id="DCcbTAUr7Qpowl2ZESW9-24" value="" style="endArrow=classic;html=1;rounded=0;exitX=0;exitY=0.5;exitDx=0;exitDy=0;entryX=1;entryY=0.5;entryDx=0;entryDy=0;" edge="1" parent="1" source="DCcbTAUr7Qpowl2ZESW9-17" target="DCcbTAUr7Qpowl2ZESW9-10">
          <mxGeometry width="50" height="50" relative="1" as="geometry">
            <mxPoint x="430" y="690" as="sourcePoint" />
            <mxPoint x="480" y="640" as="targetPoint" />
          </mxGeometry>
        </mxCell>
        <mxCell id="DCcbTAUr7Qpowl2ZESW9-25" value="" style="endArrow=classic;html=1;rounded=0;exitX=0;exitY=0.5;exitDx=0;exitDy=0;entryX=1;entryY=0.5;entryDx=0;entryDy=0;" edge="1" parent="1" source="DCcbTAUr7Qpowl2ZESW9-10" target="DCcbTAUr7Qpowl2ZESW9-13">
          <mxGeometry width="50" height="50" relative="1" as="geometry">
            <mxPoint x="430" y="690" as="sourcePoint" />
            <mxPoint x="480" y="640" as="targetPoint" />
          </mxGeometry>
        </mxCell>
        <mxCell id="DCcbTAUr7Qpowl2ZESW9-26" value="" style="endArrow=classic;html=1;rounded=0;exitX=0;exitY=0.5;exitDx=0;exitDy=0;entryX=1;entryY=0.5;entryDx=0;entryDy=0;" edge="1" parent="1" source="DCcbTAUr7Qpowl2ZESW9-13" target="DCcbTAUr7Qpowl2ZESW9-14">
          <mxGeometry width="50" height="50" relative="1" as="geometry">
            <mxPoint x="430" y="690" as="sourcePoint" />
            <mxPoint x="480" y="640" as="targetPoint" />
          </mxGeometry>
        </mxCell>
        <mxCell id="DCcbTAUr7Qpowl2ZESW9-27" value="" style="endArrow=classic;html=1;rounded=0;exitX=0;exitY=0.5;exitDx=0;exitDy=0;entryX=0.75;entryY=0.968;entryDx=0;entryDy=0;entryPerimeter=0;" edge="1" parent="1" source="DCcbTAUr7Qpowl2ZESW9-14" target="DCcbTAUr7Qpowl2ZESW9-18">
          <mxGeometry width="50" height="50" relative="1" as="geometry">
            <mxPoint x="430" y="690" as="sourcePoint" />
            <mxPoint x="480" y="640" as="targetPoint" />
          </mxGeometry>
        </mxCell>
      </root>
    </mxGraphModel>
  </diagram>
</mxfile>
